<?xml version="1.0" standalone="no"?>
<!DOCTYPE svg PUBLIC "-//W3C//DTD SVG 20010904//EN"
 "http://www.w3.org/TR/2001/REC-SVG-20010904/DTD/svg10.dtd">
<svg version="1.0" xmlns="http://www.w3.org/2000/svg"
 width="742.000000pt" height="960.000000pt" viewBox="0 0 742.000000 960.000000"
 preserveAspectRatio="xMidYMid meet">

<g transform="translate(0.000000,960.000000) scale(0.100000,-0.100000)"
fill="#000000" stroke="none">
<path d="M2562 9555 c-23 -25 -42 -49 -42 -53 0 -5 -10 -17 -22 -28 -13 -11
-31 -31 -41 -44 -10 -14 -20 -20 -22 -15 -3 6 -42 10 -87 9 -76 0 -84 -2 -93
-22 -5 -12 -17 -25 -26 -27 -10 -3 -20 -13 -23 -22 -5 -12 -9 -13 -21 -3 -11
9 -15 9 -15 1 0 -7 -9 -9 -24 -5 -31 7 -58 -6 -31 -16 10 -4 -7 -8 -41 -10
-82 -4 -101 -4 -259 4 -77 4 -177 3 -222 -2 -45 -4 -91 -4 -102 0 -12 4 -47 4
-78 0 l-58 -7 -7 -68 c-3 -38 -9 -71 -11 -73 -2 -3 -15 7 -28 21 -25 26 -53
32 -64 15 -10 -16 -45 -11 -75 10 -16 11 -31 17 -34 12 -3 -5 8 -16 24 -25 20
-12 27 -23 23 -37 -3 -13 1 -22 12 -26 13 -5 14 -9 3 -15 -11 -7 -11 -9 1 -9
9 0 11 -7 8 -23 -4 -12 -2 -28 3 -36 5 -9 2 -23 -11 -40 -27 -38 -16 -111 16
-111 16 0 22 -6 21 -17 0 -12 7 -19 22 -21 22 -3 33 -42 12 -42 -5 0 -9 6 -7
13 1 7 -11 13 -30 15 -27 3 -34 -2 -48 -27 -14 -27 -14 -31 -1 -31 10 0 13 -6
10 -15 -5 -11 -2 -13 10 -9 19 7 20 0 4 -26 -11 -16 -6 -24 34 -64 25 -24 49
-42 52 -39 3 4 6 2 6 -3 0 -5 -14 -24 -30 -43 -17 -18 -28 -37 -24 -42 3 -5
-2 -12 -10 -15 -9 -3 -16 -12 -16 -20 0 -17 12 -18 27 -3 15 15 28 -8 14 -25
-6 -7 -8 -15 -5 -19 3 -3 -4 -10 -15 -16 -13 -7 -18 -17 -14 -28 4 -9 0 -21
-8 -27 -16 -12 -32 -42 -34 -66 -1 -8 -3 -21 -4 -27 0 -7 -9 -13 -20 -13 -19
0 -45 -23 -36 -32 3 -3 -20 -8 -51 -11 -31 -3 -64 -13 -73 -21 -10 -9 -27 -16
-39 -16 -13 0 -22 -6 -22 -15 0 -13 23 -15 148 -15 81 0 162 4 179 9 20 6 35
6 38 0 11 -17 -47 -29 -168 -35 -163 -7 -184 -10 -190 -34 -5 -19 1 -20 121
-22 70 -2 155 -3 190 -3 51 0 62 -3 62 -16 0 -26 -32 -29 -214 -22 -163 6
-168 6 -163 -13 3 -10 11 -64 17 -119 32 -288 33 -300 60 -520 11 -88 26 -223
35 -300 9 -77 25 -205 35 -285 11 -80 24 -188 30 -240 6 -52 17 -142 25 -200
8 -58 17 -141 20 -184 l5 -80 -21 20 -21 19 6 -40 c3 -22 11 -85 17 -139 10
-89 9 -101 -5 -112 -30 -22 -318 -35 -353 -16 -30 17 -32 16 -27 -15 9 -47 71
-93 126 -93 20 0 40 -5 43 -11 4 -6 14 -8 23 -4 8 3 19 0 24 -7 13 -22 9 -31
-12 -25 -11 3 -18 1 -14 -4 3 -5 23 -9 45 -9 36 0 40 -2 34 -20 -4 -14 -2 -20
7 -18 7 2 13 -6 13 -17 1 -11 6 -19 12 -18 6 1 14 -9 17 -22 6 -23 20 -30 56
-27 35 3 66 -10 77 -33 6 -14 7 -25 2 -25 -5 0 -8 -20 -7 -45 2 -39 6 -47 30
-57 29 -13 35 -28 43 -118 3 -30 8 -70 11 -89 5 -26 4 -33 -7 -29 -14 5 -39
-49 -39 -83 0 -13 -11 -16 -52 -15 -30 1 -68 -6 -88 -15 -19 -9 -42 -19 -50
-22 -10 -4 -7 -6 8 -6 12 -1 22 -7 22 -14 0 -19 -33 -47 -53 -47 -17 0 -19 -4
-21 -55 l-1 -30 -77 -3 -77 -3 1 36 1 35 57 0 57 0 -11 36 c-11 36 -11 36 -56
30 -82 -11 -140 -35 -140 -58 0 -18 21 -156 65 -433 11 -69 55 -389 55 -402 0
-2 5 -3 11 -3 6 0 10 28 11 67 4 237 2 470 -4 545 l-7 87 55 7 c30 3 57 4 59
2 3 -3 16 -67 30 -144 14 -76 27 -150 30 -164 7 -34 16 -101 16 -122 0 -10 4
-18 10 -18 5 0 9 -12 9 -27 0 -36 27 -128 57 -190 13 -29 22 -57 19 -62 -4 -5
-1 -15 6 -23 28 -28 20 -48 -25 -68 -58 -26 -139 -34 -207 -22 -61 11 -75 7
-46 -14 26 -19 188 -18 277 0 71 15 143 47 156 69 5 9 61 22 153 35 156 23
635 87 737 98 l62 6 -2 -233 c-1 -129 2 -267 7 -307 8 -63 13 -76 38 -97 19
-16 42 -25 64 -25 31 0 34 -3 36 -32 4 -70 -4 -146 -23 -206 -10 -35 -22 -99
-25 -142 l-7 -80 59 -59 c32 -32 80 -82 106 -110 32 -36 54 -51 72 -51 21 0
26 -6 31 -37 3 -21 21 -88 41 -150 l35 -112 -2 -188 c-3 -169 0 -202 24 -328
15 -77 45 -278 66 -447 25 -196 46 -318 56 -338 12 -23 19 -82 27 -218 11
-193 12 -876 2 -970 l-6 -52 367 0 368 0 -6 142 c-2 79 -12 186 -22 238 -13
71 -16 124 -12 210 3 63 3 143 -2 178 -6 49 -4 67 8 84 8 12 18 58 22 102 4
45 15 113 24 151 9 39 18 133 21 215 3 80 11 172 19 205 8 34 14 117 14 190 0
78 6 159 15 200 24 110 43 186 48 190 2 3 10 -26 17 -63 7 -37 18 -89 26 -117
18 -66 26 -261 15 -355 -10 -85 2 -195 30 -280 10 -32 21 -104 25 -175 7 -130
41 -288 77 -357 21 -41 21 -42 4 -92 -11 -29 -18 -75 -17 -108 0 -31 -10 -126
-23 -210 -14 -84 -28 -197 -32 -251 l-6 -97 375 0 376 0 5 53 c4 28 8 225 10
437 3 373 4 389 30 505 23 106 28 154 36 405 5 157 14 326 20 375 17 143 50
347 61 380 17 48 31 198 34 365 2 85 8 195 14 245 14 101 10 139 -25 244 -24
75 -32 157 -14 146 6 -3 10 -30 10 -60 l0 -54 98 -71 c53 -39 100 -79 104 -88
4 -9 7 -84 7 -166 1 -116 -2 -151 -13 -160 -28 -22 -28 -52 0 -67 31 -16 109
-16 129 1 18 15 7 50 -21 62 -22 10 -24 18 -24 77 0 36 -3 96 -7 134 -4 51 -3
67 7 67 7 0 44 -25 82 -56 59 -48 73 -55 98 -49 41 9 49 29 43 109 -6 71 0 86
40 86 15 0 17 -11 17 -93 0 -90 1 -94 25 -107 22 -12 40 -10 144 13 65 15 127
29 137 31 11 2 76 18 144 34 197 48 410 99 473 113 31 7 61 17 66 23 5 6 11
173 15 371 4 198 14 632 23 965 8 333 16 615 15 628 0 27 14 29 21 2 8 -31 34
-24 41 11 5 29 -9 67 -21 55 -3 -3 -13 3 -22 12 -15 15 -16 39 -10 237 31 955
57 1906 75 2778 7 307 7 317 -12 318 -10 0 -44 2 -74 4 -30 2 -262 7 -515 9
-253 3 -467 6 -475 7 -35 5 -50 -2 -56 -26 -3 -13 -12 -29 -20 -36 -8 -7 -12
-20 -9 -30 4 -11 2 -19 -5 -19 -6 0 -8 5 -5 10 3 6 1 10 -6 10 -10 0 -10 3 -2
11 17 17 4 39 -24 39 -22 0 -24 -3 -19 -26 4 -14 3 -31 -3 -37 -5 -7 -20 -32
-33 -57 l-25 -45 4 -937 4 -936 -79 78 c-71 70 -94 85 -235 155 l-157 78 0 55
c0 132 -21 1099 -25 1122 -2 14 -4 60 -4 103 l-1 77 -125 0 c-121 0 -125 1
-129 23 -2 12 -4 31 -3 42 0 11 -3 39 -7 62 -9 50 -14 46 144 103 62 22 118
46 124 54 15 20 462 173 473 163 3 -4 7 -28 8 -54 1 -26 3 -52 4 -57 0 -5 10
3 22 18 11 14 27 26 34 26 9 0 15 15 17 42 l3 42 105 38 c58 20 236 81 395
134 160 53 298 101 307 105 10 5 27 9 37 9 11 0 22 4 26 10 3 5 20 14 38 19
109 33 318 120 334 139 11 14 57 36 123 58 58 19 114 39 125 44 11 5 47 18 80
30 33 11 69 24 80 29 39 16 461 151 473 151 7 0 12 13 12 30 0 17 -3 30 -7 30
-11 0 -76 -24 -89 -32 -6 -4 -26 -10 -45 -13 -19 -3 -38 -10 -44 -16 -5 -5
-18 -9 -28 -9 -10 0 -31 -7 -45 -15 -38 -21 -143 -65 -154 -65 -6 0 -24 -6
-41 -14 -59 -27 -217 -76 -242 -76 -18 0 -24 -4 -19 -12 5 -7 2 -9 -8 -5 -9 3
-25 -3 -37 -14 -12 -11 -21 -16 -21 -11 0 5 -13 7 -30 4 -16 -2 -30 -8 -30
-13 0 -5 -11 -7 -25 -3 -15 4 -25 2 -25 -5 0 -6 -9 -11 -19 -11 -11 0 -23 -5
-26 -10 -4 -6 -10 -8 -14 -6 -7 5 -69 -13 -116 -33 -69 -29 -133 -51 -147 -51
-9 0 -29 -6 -45 -14 -61 -30 -180 -79 -223 -90 -25 -7 -54 -18 -65 -24 -11 -6
-51 -21 -90 -33 -38 -12 -74 -25 -80 -28 -5 -4 -28 -13 -50 -20 -22 -7 -53
-19 -70 -26 -16 -7 -52 -20 -80 -30 -57 -19 -55 -18 -189 -75 -54 -23 -103
-43 -110 -44 -22 -5 -66 -29 -66 -38 0 -4 -3 -7 -7 -6 -17 3 -73 -14 -146 -46
-21 -9 -54 -16 -75 -16 -28 0 -33 -3 -22 -10 12 -8 10 -10 -8 -10 -13 0 -38
-6 -55 -14 -18 -7 -59 -18 -92 -25 -33 -6 -103 -27 -155 -47 -52 -20 -104 -38
-116 -40 -29 -5 -48 14 -69 69 -29 79 -109 217 -152 261 -47 49 -132 95 -223
121 -36 10 -72 24 -80 30 -27 22 -89 47 -99 41 -20 -13 -221 55 -221 74 0 6
-9 10 -21 10 -11 0 -17 5 -14 10 3 6 -3 10 -15 10 -12 0 -18 5 -15 10 7 11
-18 14 -28 3 -11 -10 -58 -13 -52 -2 7 10 -1 13 -49 24 -23 5 -27 3 -23 -9 3
-8 1 -17 -6 -19 -7 -2 -2 -2 11 0 12 2 22 -1 22 -6 0 -5 3 -16 6 -25 4 -11 -4
-17 -30 -22 -21 -3 -36 -12 -36 -20 0 -8 -6 -14 -13 -14 -7 0 -35 -22 -62 -50
-26 -27 -52 -47 -56 -44 -4 2 -10 0 -14 -5 -3 -6 -13 -7 -23 -4 -15 6 -15 5
-3 -10 14 -18 7 -52 -9 -42 -5 3 -10 -1 -10 -9 0 -8 -7 -19 -15 -23 -7 -5 -16
-25 -18 -46 -4 -39 -16 -61 -19 -36 0 8 -2 19 -3 24 -2 6 -3 16 -4 24 -1 11
-4 11 -16 1 -19 -16 -19 -39 0 -64 13 -18 13 -22 -4 -40 -19 -21 -75 -168 -91
-241 -28 -124 -20 -358 20 -579 24 -131 51 -204 97 -257 32 -37 41 -70 50
-204 3 -44 9 -105 13 -135 l8 -55 0 70 c0 39 -3 111 -7 160 -4 50 -4 99 0 110
7 22 10 15 49 -144 12 -46 32 -113 46 -148 30 -83 30 -96 -3 -149 -20 -31 -35
-44 -51 -44 -12 0 -21 3 -21 8 4 26 -2 112 -8 112 -5 0 -6 -29 -5 -65 4 -63 3
-65 -25 -76 -15 -6 -45 -20 -65 -30 -21 -10 -38 -17 -38 -15 0 9 -41 554 -46
613 -4 40 -11 70 -15 67 -5 -3 -9 2 -9 10 0 9 4 16 10 16 5 0 7 6 5 13 -2 6
-6 53 -9 102 -3 50 -10 149 -16 220 -5 72 -24 306 -41 520 -17 215 -34 393
-37 397 -4 4 -27 -11 -52 -33 -55 -49 -140 -108 -120 -83 13 16 13 17 -2 11
-13 -5 -17 -2 -15 12 2 11 9 26 16 35 13 16 7 56 -10 56 -5 0 -9 7 -9 16 0 14
2 15 17 3 15 -13 16 -11 9 14 -4 18 -2 35 6 44 10 12 9 17 -5 25 -16 9 -16 12
4 47 l21 39 -21 21 c-11 11 -21 25 -21 29 0 17 13 22 27 11 13 -12 14 -10 17
26 0 11 7 19 14 17 10 -2 10 3 -1 24 -11 20 -11 35 -2 69 6 24 14 47 17 51 4
3 4 -3 1 -15 -4 -15 -1 -21 11 -21 10 0 14 5 11 10 -9 14 4 52 16 45 5 -4 9
-15 9 -26 0 -10 5 -19 11 -19 8 0 10 16 6 49 -4 31 -2 52 6 60 9 9 8 16 -1 31
-10 17 -10 21 4 27 10 4 12 8 5 12 -6 4 -13 20 -15 37 -3 16 -8 38 -11 50 -4
13 -1 25 9 33 22 19 20 40 -6 61 -30 24 -13 48 21 31 17 -9 20 -17 14 -39 -6
-24 -5 -26 10 -13 9 7 24 11 32 7 10 -3 15 1 15 13 0 37 -12 51 -42 51 -25 0
-29 3 -25 20 3 13 0 20 -9 20 -10 0 -8 6 6 20 11 11 20 29 20 40 0 19 -7 20
-148 20 l-148 0 -42 -45z m-1172 -296 c0 -10 -7 -19 -15 -19 -9 0 -15 9 -15
25 0 18 4 23 15 19 8 -4 15 -15 15 -25z m2075 -488 c-6 -5 -25 10 -25 20 0 5
6 4 14 -3 8 -7 12 -15 11 -17z m45 5 c0 -3 -4 -8 -10 -11 -5 -3 -10 -1 -10 4
0 6 5 11 10 11 6 0 10 -2 10 -4z m-2200 -106 c0 -5 -4 -10 -10 -10 -5 0 -10 5
-10 10 0 6 5 10 10 10 6 0 10 -4 10 -10z m1797 -222 c-3 -8 -6 -5 -6 6 -1 11
2 17 5 13 3 -3 4 -12 1 -19z m-722 -58 c-3 -5 -31 -10 -61 -10 -34 0 -53 4
-49 10 3 6 31 10 61 10 34 0 53 -4 49 -10z m2925 -120 c0 -5 -4 -10 -10 -10
-5 0 -10 5 -10 10 0 6 5 10 10 10 6 0 10 -4 10 -10z m-2510 -186 c0 -8 -4 -12
-10 -9 -5 3 -10 13 -10 21 0 8 5 12 10 9 6 -3 10 -13 10 -21z m41 -56 c0 -22
1 -22 9 -3 8 18 9 17 9 -8 1 -20 -3 -26 -11 -21 -10 6 -10 4 0 -7 6 -7 12 -27
12 -45 0 -18 5 -34 11 -36 13 -4 -5 -48 -20 -48 -5 0 -6 -11 -3 -25 2 -14 8
-25 13 -25 5 0 6 -7 3 -15 -4 -8 -15 -15 -26 -15 -17 0 -18 2 -8 15 10 12 10
19 2 27 -9 9 -12 8 -12 -2 -1 -9 -7 -4 -15 10 -14 25 -14 25 -15 3 0 -13 -5
-23 -11 -23 -8 0 -10 25 -7 80 4 62 10 87 26 110 12 16 22 34 22 40 0 21 20 9
21 -12z m-44 -260 c-3 -8 -6 -5 -6 6 -1 11 2 17 5 13 3 -3 4 -12 1 -19z m-30
-20 c-3 -8 -6 -5 -6 6 -1 11 2 17 5 13 3 -3 4 -12 1 -19z m218 -338 c-3 -5
-10 -10 -16 -10 -5 0 -9 5 -9 10 0 6 7 10 16 10 8 0 12 -4 9 -10z m820 -530
c-3 -5 -17 -10 -31 -10 -13 0 -24 5 -24 10 0 6 14 10 31 10 17 0 28 -4 24 -10z
m-339 -342 c7 -7 -18 -13 -40 -9 -4 1 -14 -4 -22 -10 -16 -13 -19 2 -4 17 12
12 55 13 66 2z m44 -298 c12 -8 10 -10 -10 -11 -14 -1 -33 -1 -44 0 -10 0 -25
-4 -32 -10 -10 -8 -14 -8 -14 -1 0 27 69 42 100 22z m-108 -222 c-7 -7 -12 -8
-12 -2 0 14 12 26 19 19 2 -3 -1 -11 -7 -17z m4 -375 c-10 -10 -19 5 -10 18 6
11 8 11 12 0 2 -7 1 -15 -2 -18z m-2169 -15 c-3 -8 -6 -5 -6 6 -1 11 2 17 5
13 3 -3 4 -12 1 -19z m1822 -7 c12 -8 10 -12 -12 -22 -30 -14 -43 -8 -34 16 7
17 25 19 46 6z m303 -45 c4 -19 0 -26 -16 -30 -52 -14 -86 -2 -86 30 0 8 44
23 71 23 21 1 28 -5 31 -23z m-184 -23 c-4 -24 -118 -33 -118 -9 0 11 14 16
48 19 26 2 53 4 60 5 8 1 12 -5 10 -15z m-1926 -75 c-7 -7 -12 -8 -12 -2 0 14
12 26 19 19 2 -3 -1 -11 -7 -17z m273 -873 c11 -1 27 -4 35 -7 79 -28 93 -30
101 -17 8 12 11 11 19 -1 15 -23 12 -27 -20 -22 -24 3 -30 1 -30 -13 0 -14 3
-15 14 -6 11 9 19 9 35 -1 23 -14 29 -30 8 -22 -16 6 -59 -51 -55 -74 2 -11
-3 -17 -14 -16 -10 1 -18 -2 -18 -7 0 -5 -6 -6 -14 -3 -10 4 -21 -9 -36 -40
-11 -25 -25 -46 -31 -46 -6 0 -7 -4 -4 -10 9 -14 -11 -13 -36 3 -17 10 -22 9
-33 -6 -12 -15 -15 -8 -25 55 -21 134 -25 192 -13 185 6 -5 8 0 5 13 -4 15 -2
19 10 14 9 -3 23 3 34 15 11 13 24 19 33 15 8 -4 24 -8 35 -9z m3399 -284 c65
-93 96 -124 208 -208 l87 -66 1 -514 0 -514 -164 113 c-91 62 -183 125 -204
140 l-40 28 -3 177 c-2 98 -4 237 -4 308 -1 72 -5 201 -10 287 -7 141 -6 158
8 164 21 8 37 64 37 133 0 66 7 62 84 -48z m-3415 -45 c22 -12 21 -13 -26 -23
-48 -9 -50 -8 -48 11 1 12 3 22 4 24 4 7 49 0 70 -12z m1361 -36 c0 -21 -42
-121 -67 -157 -14 -21 -37 -67 -50 -103 -25 -65 -25 -65 -8 -145 9 -44 19 -88
21 -98 7 -23 55 -47 95 -47 l31 0 -6 -67 c-8 -78 -31 -172 -87 -363 -24 -81
-79 -169 -79 -127 0 6 -7 26 -16 42 -19 36 -14 77 21 160 30 72 31 109 6 155
-57 103 -59 120 -14 120 22 0 24 3 19 23 -18 58 -25 170 -26 371 -1 120 1 220
3 222 4 4 104 20 140 23 9 0 17 -3 17 -9z m-1399 -121 l24 -21 -25 4 c-14 1
-26 11 -28 21 -4 22 0 22 29 -4z m1176 -648 c-2 -10 -1 -25 3 -31 12 -19 -11
-50 -37 -50 -18 0 -23 6 -23 28 0 21 2 24 10 12 8 -11 9 -8 4 12 -7 33 1 48
28 48 15 0 19 -5 15 -19z m-214 -236 c-3 -9 -8 -14 -10 -11 -3 3 -2 9 2 15 9
16 15 13 8 -4z"/>
<path d="M2835 7940 c-3 -5 -1 -10 4 -10 6 0 11 5 11 10 0 6 -2 10 -4 10 -3 0
-8 -4 -11 -10z"/>
<path d="M2797 7893 c-4 -3 -7 -11 -7 -17 0 -6 5 -5 12 2 6 6 9 14 7 17 -3 3
-9 2 -12 -2z"/>
<path d="M2915 9591 c-10 -17 -1 -71 12 -71 7 0 13 5 13 10 0 6 6 10 14 10 8
0 17 6 19 13 3 6 6 3 7 -8 1 -11 3 -29 5 -40 12 -63 15 -86 20 -140 3 -33 10
-94 15 -135 5 -41 16 -158 25 -259 9 -102 21 -191 27 -198 7 -9 7 -13 -1 -13
-7 0 -9 -4 -6 -10 3 -5 15 -10 26 -10 11 0 17 -4 14 -10 -3 -5 4 -10 15 -10
16 0 20 4 16 16 -3 9 -6 18 -6 20 0 2 -9 4 -21 4 -15 0 -19 4 -15 16 3 9 6 19
6 22 0 4 5 0 11 -8 8 -11 12 -12 16 -2 2 6 11 12 19 12 8 0 14 8 14 18 1 15 2
15 16 -3 13 -17 16 -18 25 -5 8 11 12 12 16 3 6 -15 63 -18 63 -3 0 6 -11 10
-24 10 -13 0 -29 7 -36 15 -7 8 -16 12 -21 9 -5 -3 -9 0 -9 5 0 16 33 13 56
-4 10 -8 22 -15 25 -15 7 0 22 40 20 53 -1 5 4 5 10 1 6 -3 15 0 20 7 8 12 11
12 19 -1 7 -12 11 -8 16 18 7 36 12 38 39 18 16 -12 17 -16 6 -30 -11 -13 -11
-17 2 -22 9 -3 21 -3 27 1 5 3 10 1 10 -6 0 -14 30 -38 48 -39 6 0 12 9 12 21
0 11 6 27 14 34 12 12 15 12 20 0 3 -8 1 -15 -4 -15 -15 0 -12 -27 4 -33 21
-8 39 18 28 40 -5 10 -13 38 -17 61 -6 37 -4 46 13 57 13 10 18 22 15 40 -4
17 -1 25 9 25 25 0 52 26 42 41 -5 8 -9 26 -10 42 -1 23 2 27 27 27 37 0 38
17 2 23 l-28 4 29 2 c24 1 27 4 23 23 -4 13 0 26 10 33 14 10 14 13 -2 28 -9
9 -14 18 -11 18 42 9 57 22 54 44 -4 29 46 94 69 91 10 -2 12 -1 6 1 -19 7
-15 24 4 21 10 -2 22 7 30 24 7 14 27 31 43 37 17 5 30 14 30 20 0 6 20 19 45
30 25 11 45 22 45 25 0 10 -1068 7 -1075 -3z m533 -611 c-7 -10 -14 -18 -15
-16 -6 6 9 36 18 36 5 0 4 -9 -3 -20z"/>
<path d="M4018 9593 c6 -2 18 -2 25 0 6 3 1 5 -13 5 -14 0 -19 -2 -12 -5z"/>
<path d="M4186 9573 c28 -30 52 -37 71 -21 10 8 13 6 13 -6 0 -19 21 -21 38
-4 16 16 55 18 65 4 5 -8 10 -7 16 3 6 9 10 10 16 2 3 -7 15 -9 25 -6 10 3 20
0 23 -8 3 -8 18 -14 32 -14 15 0 31 -6 35 -13 6 -9 12 -9 29 0 14 7 27 8 34 2
26 -21 55 -23 60 -5 4 17 5 17 6 0 1 -14 6 -17 24 -11 12 4 31 8 42 9 11 1 25
10 30 21 6 10 21 20 35 21 14 2 46 6 73 9 43 6 47 4 47 -15 0 -12 5 -21 10
-21 6 0 10 9 10 20 0 27 24 25 39 -2 7 -14 9 -16 6 -5 -3 10 -5 30 -5 43 l0
24 -400 0 -399 0 25 -27z"/>
<path d="M4980 9586 c0 -25 24 -37 47 -21 23 16 63 9 63 -11 0 -27 52 -8 70
26 10 19 7 20 -85 20 -74 0 -95 -3 -95 -14z"/>
<path d="M5210 9590 c0 -5 4 -10 9 -10 6 0 13 5 16 10 3 6 -1 10 -9 10 -9 0
-16 -4 -16 -10z"/>
<path d="M5371 9568 c-11 -24 -11 -33 -3 -36 7 -2 9 -8 6 -13 -3 -6 0 -16 6
-24 16 -19 6 -45 -17 -46 -10 -1 -5 -4 12 -8 19 -4 35 -16 43 -34 16 -33 28
-34 36 -4 l6 22 14 -25 c13 -22 15 -23 21 -7 11 26 28 20 23 -8 -3 -13 -1 -22
3 -19 5 3 9 17 9 31 0 15 3 23 7 19 4 -4 8 -15 8 -24 0 -10 10 -18 24 -20 19
-3 21 -6 10 -13 -11 -7 -11 -9 3 -9 10 0 26 -9 37 -21 10 -11 27 -20 37 -19
34 4 41 0 52 -25 6 -14 19 -25 27 -25 9 0 15 -6 14 -12 -5 -38 1 -44 36 -40
19 2 35 0 35 -5 0 -17 40 -52 54 -47 8 3 14 -1 13 -8 -2 -65 14 -105 26 -60 3
11 5 7 6 -10 1 -16 -5 -28 -14 -30 -9 -2 -11 -8 -6 -16 14 -23 38 -4 33 28 -3
18 0 30 7 30 6 0 11 -9 11 -19 0 -34 11 -51 34 -51 21 1 21 1 2 15 -17 13 -17
15 -4 15 23 0 26 -8 32 -72 6 -62 14 -87 34 -107 12 -13 15 -13 23 1 5 10 17
14 28 11 10 -3 22 0 25 6 5 7 -3 11 -18 11 -18 0 -26 5 -26 18 0 11 3 13 8 5
10 -16 82 -28 82 -14 0 6 10 11 23 11 21 1 22 1 3 15 -15 12 -16 15 -5 15 11
0 14 8 12 28 -3 18 3 35 17 50 12 13 19 30 16 38 -3 8 5 33 19 54 14 22 25 53
25 70 0 17 6 31 13 31 6 1 19 3 27 4 8 1 21 3 28 4 6 0 12 12 12 25 0 14 11
38 25 54 14 17 25 35 25 40 0 6 9 17 20 25 13 9 18 20 14 31 -7 19 21 23 30 4
3 -7 3 -1 0 15 -4 16 -2 27 4 27 6 0 14 9 17 20 3 11 13 20 21 20 8 0 14 5 14
10 0 6 7 10 16 10 8 0 12 4 9 10 -3 6 1 7 9 4 12 -5 16 0 16 19 0 19 6 26 30
31 17 3 30 10 30 16 0 7 -206 10 -628 10 l-627 0 -14 -32z m434 -338 c4 -6 -5
-10 -19 -10 -14 0 -26 5 -26 10 0 6 9 10 19 10 11 0 23 -4 26 -10z"/>
<path d="M6668 9593 c12 -2 32 -2 45 0 12 2 2 4 -23 4 -25 0 -35 -2 -22 -4z"/>
<path d="M5025 9530 c-3 -5 -1 -10 4 -10 6 0 11 5 11 10 0 6 -2 10 -4 10 -3 0
-8 -4 -11 -10z"/>
<path d="M2160 9380 c0 -5 5 -10 10 -10 6 0 10 5 10 10 0 6 -4 10 -10 10 -5 0
-10 -4 -10 -10z"/>
<path d="M2931 9374 c0 -11 3 -14 6 -6 3 7 2 16 -1 19 -3 4 -6 -2 -5 -13z"/>
<path d="M1170 9090 c0 -5 4 -10 9 -10 6 0 13 5 16 10 3 6 -1 10 -9 10 -9 0
-16 -4 -16 -10z"/>
<path d="M1110 9075 c-12 -14 -12 -18 1 -25 10 -7 15 -5 17 5 6 28 -3 38 -18
20z"/>
<path d="M6257 9074 c-4 -4 -7 -14 -7 -23 0 -11 3 -12 11 -4 6 6 10 16 7 23
-2 6 -7 8 -11 4z"/>
<path d="M1090 9005 c0 -29 3 -36 18 -33 11 2 18 14 19 33 2 29 2 29 -7 5 -7
-23 -8 -24 -9 -3 -2 38 -21 37 -21 -2z"/>
<path d="M3590 8946 c0 -16 18 -31 27 -22 3 3 -2 12 -11 21 -14 14 -16 14 -16
1z"/>
<path d="M5950 8935 c0 -8 5 -15 10 -15 6 0 10 7 10 15 0 8 -4 15 -10 15 -5 0
-10 -7 -10 -15z"/>
<path d="M2796 8907 c3 -10 9 -15 12 -12 3 3 0 11 -7 18 -10 9 -11 8 -5 -6z"/>
<path d="M1085 8890 c-3 -5 3 -10 15 -10 12 0 18 5 15 10 -3 6 -10 10 -15 10
-5 0 -12 -4 -15 -10z"/>
<path d="M3601 8884 c0 -11 3 -14 6 -6 3 7 2 16 -1 19 -3 4 -6 -2 -5 -13z"/>
<path d="M3355 8818 c4 -47 2 -58 -10 -58 -8 0 -15 -5 -15 -11 0 -7 7 -8 18
-4 9 3 29 9 45 12 15 3 27 10 27 14 0 5 -11 7 -24 3 -22 -5 -25 -2 -31 33 -11
66 -15 70 -10 11z"/>
<path d="M3072 8683 c-1 -25 3 -43 11 -46 9 -3 9 -7 -2 -20 -12 -15 -11 -17 3
-17 9 0 17 -8 17 -17 1 -10 5 0 9 22 9 46 4 66 -15 59 -9 -4 -15 5 -18 28 -3
30 -4 29 -5 -9z"/>
<path d="M2755 8589 c-11 -17 1 -21 15 -4 8 9 8 15 2 15 -6 0 -14 -5 -17 -11z"/>
<path d="M3131 8593 c0 -4 4 -17 9 -28 8 -19 9 -19 9 2 1 12 -3 25 -9 28 -5 3
-10 3 -9 -2z"/>
<path d="M3110 8548 c0 -9 -6 -18 -12 -20 -7 -3 -2 -7 10 -10 24 -7 29 6 12
32 -8 13 -10 13 -10 -2z"/>
<path d="M7407 7678 c-4 -90 -16 -316 -27 -503 -18 -329 -24 -440 -55 -1060
-8 -159 -19 -369 -25 -465 -5 -96 -12 -224 -15 -285 -3 -60 -7 -137 -10 -170
-3 -33 -12 -186 -20 -340 -14 -272 -22 -410 -30 -565 -2 -41 -7 -127 -10 -190
-3 -63 -10 -185 -15 -270 -6 -85 -17 -283 -26 -440 -8 -157 -17 -312 -19 -345
-2 -33 -6 -107 -9 -165 -4 -58 -11 -188 -18 -290 -6 -102 -12 -210 -13 -240
-9 -192 -32 -531 -40 -590 -2 -14 -4 -31 -4 -38 -1 -10 -5 -10 -21 0 -11 7
-20 18 -20 23 0 6 -15 16 -32 23 -36 13 -181 111 -238 160 -24 20 -41 28 -49
22 -8 -4 -11 -13 -7 -18 11 -18 -5 -62 -23 -62 -12 0 -11 -4 7 -18 27 -21 20
-32 -19 -32 -20 0 -28 -6 -33 -25 -4 -14 -13 -25 -21 -25 -20 0 -19 -13 4 -34
11 -10 16 -25 14 -39 -3 -17 2 -26 20 -36 25 -13 51 -56 43 -69 -2 -4 -5 -64
-6 -132 -2 -176 -9 -230 -29 -238 -24 -9 -40 -34 -41 -64 0 -20 9 -32 37 -49
39 -25 87 -28 213 -16 77 8 83 5 227 -99 54 -40 109 -75 123 -79 14 -4 31 -16
38 -26 7 -11 19 -19 26 -19 7 0 20 -17 29 -37 12 -27 30 -45 62 -61 l45 -22 0
3545 c0 1950 -2 3545 -3 3545 -2 0 -7 -73 -10 -162z m-572 -6198 c-3 -5 -10
-10 -16 -10 -5 0 -9 5 -9 10 0 6 7 10 16 10 8 0 12 -4 9 -10z m9 -175 c10 -8
15 -19 10 -26 -5 -9 -2 -10 9 -6 9 3 17 1 20 -6 6 -18 -5 -57 -14 -51 -16 9
-10 -13 11 -39 11 -14 20 -28 20 -32 0 -13 -46 9 -74 36 -17 16 -34 29 -39 29
-13 0 2 93 16 102 16 10 19 10 41 -7z"/>
<path d="M932 6067 c-30 -32 -29 -86 2 -120 29 -31 57 -39 117 -35 41 3 44 5
47 33 5 44 -15 101 -45 124 -36 29 -93 28 -121 -2z"/>
<path d="M6304 2799 c-2 -4 5 -9 15 -12 11 -3 22 0 24 7 5 12 -31 17 -39 5z"/>
<path d="M6230 2780 c0 -5 7 -7 15 -4 8 4 15 8 15 10 0 2 -7 4 -15 4 -8 0 -15
-4 -15 -10z"/>
<path d="M6056 2761 c-11 -12 -29 -21 -40 -19 -12 2 -25 -2 -31 -8 -13 -15
-69 -28 -60 -15 9 15 -81 3 -124 -16 -23 -10 -50 -14 -81 -10 -27 3 -52 1 -58
-5 -6 -6 -12 -6 -16 1 -11 18 -26 13 -26 -8 0 -11 -9 -23 -20 -26 -11 -4 -18
-10 -15 -15 6 -9 -90 -20 -195 -21 -66 -1 -139 -9 -219 -25 -22 -5 -23 -6 -6
-24 10 -11 15 -20 11 -20 -4 0 6 -12 23 -26 17 -14 31 -32 31 -40 0 -7 19 -23
43 -35 23 -12 62 -37 87 -57 43 -33 48 -34 108 -28 51 4 70 2 100 -14 40 -22
76 -25 131 -11 20 6 81 17 136 26 55 8 127 20 160 26 33 5 102 9 153 7 68 -1
96 2 101 11 5 8 17 11 30 7 11 -3 30 -8 40 -11 16 -5 21 2 30 45 11 49 16 282
7 291 -10 10 -180 -17 -184 -29 -2 -6 -13 -12 -25 -11 -21 0 -21 1 -2 9 18 8
17 9 -8 9 -31 1 -53 18 -58 45 -4 17 -6 16 -23 -3z"/>
<path d="M6224 2752 c5 -8 66 -4 66 4 0 2 -16 4 -36 4 -19 0 -33 -4 -30 -8z"/>
<path d="M5790 2734 c0 -8 5 -12 10 -9 6 4 8 11 5 16 -9 14 -15 11 -15 -7z"/>
<path d="M6180 2368 c0 -4 12 -8 26 -8 19 0 25 -4 20 -15 -3 -10 1 -15 12 -15
9 0 26 -2 37 -5 24 -6 71 27 61 43 -5 8 -15 8 -33 1 -15 -5 -34 -7 -42 -3 -24
10 -81 12 -81 2z"/>
<path d="M6340 2193 c-1 -10 -2 -43 -4 -73 -3 -30 -5 -90 -7 -132 -2 -76 -2
-77 32 -105 19 -15 42 -35 52 -44 9 -9 30 -22 45 -30 15 -8 31 -20 35 -26 13
-21 39 -16 32 6 -4 15 -1 18 20 16 24 -3 25 -1 19 33 -4 21 -10 42 -13 47 -4
6 -2 30 5 55 12 42 12 43 13 13 1 -18 6 -33 12 -33 7 0 10 17 7 45 -3 38 0 45
14 45 10 0 18 2 18 5 0 8 -64 64 -73 65 -5 0 -15 6 -22 13 -8 6 -25 20 -37 29
-13 10 -43 33 -66 53 -48 38 -82 46 -82 18z"/>
</g>
</svg>
